<svg xmlns="http://www.w3.org/2000/svg" viewBox="0 0 100 100">
  <defs>
    <linearGradient id="bg" x1="0%" y1="0%" x2="100%" y2="100%">
      <stop offset="0%" stop-color="#ea580c"/>
      <stop offset="100%" stop-color="#f97316"/>
    </linearGradient>
  </defs>
  <!-- Rounded square brand badge -->
  <rect width="100" height="100" rx="26" ry="26" fill="url(#bg)"/>
  <!-- Lucide-style "package" icon, white outline, centered.
       Source 24x24 viewBox scaled 2.5x and translated so it's centered
       inside the 100x100 favicon canvas (offset = (100 - 60) / 2 = 20). -->
  <g transform="translate(20 20) scale(2.5)" fill="none" stroke="#ffffff"
     stroke-width="2.2" stroke-linecap="round" stroke-linejoin="round">
    <path d="m7.5 4.27 9 5.15"/>
    <path d="M21 8a2 2 0 0 0-1-1.73l-7-4a2 2 0 0 0-2 0l-7 4A2 2 0 0 0 3 8v8a2 2 0 0 0 1 1.73l7 4a2 2 0 0 0 2 0l7-4A2 2 0 0 0 21 16Z"/>
    <path d="M3.3 7 12 12l8.7-5"/>
    <path d="M12 22V12"/>
  </g>
</svg>
